<?xml version="1.0" standalone="no"?>
<!DOCTYPE svg PUBLIC "-//W3C//DTD SVG 20010904//EN"
 "http://www.w3.org/TR/2001/REC-SVG-20010904/DTD/svg10.dtd">
<svg version="1.0" xmlns="http://www.w3.org/2000/svg"
 width="120.000000pt" height="52.000000pt" viewBox="0 0 120.000000 52.000000"
 preserveAspectRatio="xMidYMid meet">

<g transform="translate(0.000000,52.000000) scale(0.100000,-0.100000)"
fill="#000000" stroke="none">
<path d="M91 448 c-5 -13 -23 -58 -40 -101 -17 -43 -31 -80 -31 -82 0 -3 11
-5 24 -5 15 0 26 7 29 20 8 29 93 29 102 0 4 -13 15 -20 32 -20 16 0 23 4 20
13 -75 189 -79 197 -103 197 -16 0 -27 -8 -33 -22z m54 -85 c5 -20 3 -23 -19
-23 -30 0 -29 0 -16 36 11 29 23 24 35 -13z"/>
<path d="M310 365 l0 -105 60 0 c53 0 60 2 60 20 0 16 -7 20 -35 20 l-35 0 0
85 c0 84 0 85 -25 85 l-25 0 0 -105z"/>
<path d="M520 450 c0 -15 7 -20 25 -20 25 0 25 -1 25 -85 0 -78 2 -85 20 -85
18 0 20 7 20 84 l0 85 27 3 c17 2 29 10 31 21 3 15 -6 17 -72 17 -69 0 -76 -2
-76 -20z"/>
<path d="M750 385 c0 -72 3 -88 20 -105 21 -21 92 -28 117 -12 21 13 33 62 33
133 0 67 -1 69 -25 69 -23 0 -24 -3 -27 -76 -3 -81 -17 -104 -52 -91 -13 5
-16 22 -16 87 0 79 0 80 -25 80 -25 0 -25 -1 -25 -85z"/>
<path d="M1020 451 c0 -16 8 -20 45 -23 l44 -3 -49 -78 c-28 -42 -50 -80 -50
-82 0 -3 41 -5 90 -5 83 0 90 2 90 19 0 17 -8 20 -50 23 l-51 3 29 45 c15 25
38 62 51 83 l23 37 -86 0 c-79 0 -86 -2 -86 -19z"/>
<path d="M851 191 c-7 -5 -21 -7 -30 -5 -21 6 -67 -64 -52 -79 7 -7 25 5 60
41 47 49 54 63 22 43z"/>
<path d="M674 157 c-60 -93 -76 -127 -60 -127 9 0 26 16 38 35 15 23 31 35 46
35 30 0 64 36 60 63 -2 16 -11 22 -33 24 -24 2 -34 -4 -51 -30z m59 -9 c-13
-12 -25 -19 -29 -15 -10 10 16 37 34 37 13 0 12 -4 -5 -22z"/>
<path d="M872 167 c-38 -40 -20 -83 28 -70 l24 6 -22 -36 c-30 -52 -2 -50 37
3 15 21 31 37 34 34 11 -11 48 8 64 32 12 19 13 28 5 36 -24 24 -57 16 -93
-23 -20 -22 -44 -39 -55 -39 -17 1 -18 2 -2 13 9 7 25 17 35 23 15 10 16 13 4
28 -18 22 -34 20 -59 -7z m43 -16 c-3 -6 -11 -11 -17 -11 -6 0 -6 6 2 15 14
17 26 13 15 -4z m98 -3 c-13 -12 -25 -19 -28 -16 -8 7 23 38 38 38 6 0 2 -10
-10 -22z"/>
<path d="M1076 169 c-17 -14 -26 -29 -24 -43 2 -17 10 -21 45 -23 28 -1 49 5
61 15 9 10 13 14 8 10 -19 -15 -27 -8 -15 14 10 18 8 24 -7 35 -25 18 -37 16
-68 -8z m38 -23 c-3 -8 -12 -17 -20 -20 -12 -4 -12 -2 -4 14 12 23 32 27 24 6z"/>
</g>
</svg>
